<svg width="20" height="21" viewBox="0 0 20 21" fill="none" xmlns="http://www.w3.org/2000/svg"><path opacity=".5" fill-rule="evenodd" clip-rule="evenodd" d="M17 5.765h-1V.032H4v5.733H3c-1.66 0-3 1.537-3 3.44v6.88h4v4.587h12v-4.587h4v-6.88c0-1.903-1.34-3.44-3-3.44zM6 2.325h8v3.44H6v-3.44zm8 16.053v-4.586H6v4.586h8zm2-4.586v-2.293H4v2.293H2V9.205c0-.63.45-1.146 1-1.146h14c.55 0 1 .516 1 1.146v4.587h-2zm-1-4.013c0-.634.448-1.147 1-1.147s1 .513 1 1.147c0 .633-.448 1.146-1 1.146s-1-.513-1-1.146z" fill="#AC8A64"/></svg>