<svg width="40" height="40" viewBox="0 0 40 40" fill="none" xmlns="http://www.w3.org/2000/svg"><g clip-path="url(#a)" fill="#273F63"><path d="M25.296 24.25h-1.197v-1.288a8.043 8.043 0 0 0 3.578-6.687v-2.163c0-.057-.002-.114-.004-.171l.985-.204-.105-1.026c-.223-2.19-1.016-4.353-2.175-5.933a8.426 8.426 0 0 0-1.948-1.927A4.826 4.826 0 0 0 19.633.5c-2.5 0-4.56 1.912-4.797 4.35a8.426 8.426 0 0 0-1.948 1.928c-1.16 1.58-1.952 3.743-2.175 5.933l-.105 1.026.984.204-.003.171v2.163a8.043 8.043 0 0 0 3.578 6.687v1.288H13.97a6.526 6.526 0 0 0-6.519 6.52v8.73h24.364v-8.73a6.526 6.526 0 0 0-6.52-6.52zM19.633 2.785c.727 0 1.384.308 1.846.8a9.127 9.127 0 0 0-1.846-.183c-.64 0-1.257.062-1.846.184a2.527 2.527 0 0 1 1.846-.801zm-6.48 9.083c.213-1.043.657-2.484 1.577-3.738 1.19-1.62 2.84-2.443 4.903-2.443 2.063 0 3.713.822 4.903 2.443.92 1.254 1.364 2.695 1.578 3.738-2.255.21-4.45-.374-5.69-1.566l-.791-.76-.792.76c-1.24 1.192-3.434 1.776-5.689 1.566zm.721 4.407v-2.08c2.175.033 4.24-.531 5.759-1.596 1.476 1.035 3.468 1.598 5.576 1.597.061 0 .122 0 .183-.002v2.081a5.765 5.765 0 0 1-5.759 5.76 5.765 5.765 0 0 1-5.759-5.76zm7.94 7.744v1.023l-2.181 3.213-2.181-3.213v-1.023a8.047 8.047 0 0 0 4.362 0zM9.736 37.215v-6.446c0-2.334 1.9-4.233 4.234-4.233h1.734l7.25 10.679H9.735zm19.793 0h-3.814l-4.701-6.926 2.548-3.754h1.734c2.334 0 4.233 1.9 4.233 4.234v6.446z"/><path d="M17.328 17.829a.998.998 0 1 0 0-1.996.998.998 0 0 0 0 1.996zm4.61 0a.998.998 0 1 0 0-1.996.998.998 0 0 0 0 1.996z"/></g><defs><clipPath id="a"><path fill="#fff" transform="translate(.133 .5)" d="M0 0h39v39H0z"/></clipPath></defs></svg>