<svg width="35" height="31" viewBox="0 0 35 31" fill="none" xmlns="http://www.w3.org/2000/svg"><path d="M34.513 10.227L29.98 1.161c-.22-.385-.528-.626-1.014-.626H6.3c-.474 0-.79.235-1.014.626L.753 10.227c-.21.446-.138.894.16 1.251l15.865 18.208a1.134 1.134 0 0 0 1.71 0l15.865-18.208c.296-.355.37-.803.16-1.25zm-7.381-7.426l-2.893 5.786L19.9 2.8h7.233zm-4.966 6.8H13.1l4.533-6.044L22.166 9.6zm-6.8-6.8l-4.34 5.786L8.135 2.8h7.232zM6.3 4.201l2.7 5.4H3.6l2.7-5.4zm-2.042 7.666h5.827l5.587 13.1-11.414-13.1zm13.375 11.92l-5.084-11.92h10.168l-5.084 11.92zm1.961 1.18l5.587-13.1h5.827l-11.414 13.1zM26.266 9.6l2.7-5.4 2.699 5.4h-5.399z" fill="#273F63"/></svg>