<svg width="15" height="14" viewBox="0 0 15 14" fill="none" xmlns="http://www.w3.org/2000/svg"><path d="M14.441 9.995c-.089-.148-.327-.238-.683-.416-.357-.179-2.11-1.041-2.437-1.16-.327-.12-.564-.179-.802.178-.238.357-.921 1.16-1.13 1.398-.207.238-.415.268-.772.09-.356-.179-1.505-.555-2.867-1.77-1.06-.946-1.776-2.113-1.984-2.47-.208-.357-.022-.55.156-.728.16-.16.357-.417.535-.625.179-.208.238-.357.357-.595s.06-.446-.03-.625c-.089-.178-.802-1.933-1.1-2.647-.289-.696-.583-.601-.802-.612A14.66 14.66 0 0 0 2.2 0c-.238 0-.624.09-.951.446C.921.803 0 1.666 0 3.421c0 1.755 1.278 3.45 1.456 3.689.178.238 2.514 3.84 6.092 5.384.85.368 1.515.587 2.032.751.855.272 1.632.233 2.246.142.685-.103 2.11-.863 2.407-1.696.297-.833.297-1.547.208-1.696z" fill="#EEF3FA"/></svg>