<svg width="35" height="34" viewBox="0 0 35 34" fill="none" xmlns="http://www.w3.org/2000/svg"><g clip-path="url(#a)" stroke="#273F63"><path d="M23.5 28.02v.5h6.646v.992h-1.994V33.5H7.114v-3.988H5.12v-.992h6.646v-8.507h5.37v-3.009l-.375-.097a3.502 3.502 0 0 1-2.623-3.384c0-1.064.513-2.202 1.636-3.384a10.28 10.28 0 0 1 1.585-1.358l.274-.181.274.181c.02.013.804.536 1.585 1.358 1.122 1.182 1.635 2.32 1.635 3.384a3.502 3.502 0 0 1-2.623 3.384l-.375.097v3.009h5.37v8.007zm-5.55-17.966l-.318-.263-.319.263a8.5 8.5 0 0 0-1.398 1.45c-.42.572-.786 1.276-.786 2.019a2.505 2.505 0 0 0 2.503 2.502 2.505 2.505 0 0 0 2.502-2.502c0-.743-.364-1.447-.785-2.018a8.486 8.486 0 0 0-1.399-1.45zm4.556 11.45v-.5h-9.749v3.528h9.75v-3.027zm-9.249 4.02h-.5v2.996h9.75v-2.996h-9.25zm13.402 6.983h.5v-2.995H8.106v2.995H26.66z" fill="#000"/><path d="M4.62 3.832l3.298 25.087h20.254l2.474-25.087H4.62z" stroke-width="2"/></g><defs><clipPath id="a"><path fill="#fff" transform="translate(.633)" d="M0 0h34v34H0z"/></clipPath></defs></svg>