<svg width="34" height="34" viewBox="0 0 34 34" fill="none" xmlns="http://www.w3.org/2000/svg"><g clip-path="url(#a)"><path d="M28.444 21.202a13.612 13.612 0 0 0 2.249-7.51C30.693 6.143 24.55 0 16.999 0 9.45 0 3.308 6.142 3.308 13.693c0 2.77.828 5.352 2.248 7.51L.2 29.012l6.13-1.142L7.47 34l5.051-7.367c1.404.487 2.91.753 4.478.753 1.567 0 3.073-.266 4.477-.753L26.528 34l1.143-6.13 6.129 1.144-5.356-7.812zm-19.89 7.675l-.623-3.343-3.343.623 2.255-3.29a13.782 13.782 0 0 0 3.806 2.954l-2.095 3.056zM5.31 13.693c0-6.446 5.244-11.69 11.69-11.69 6.445 0 11.689 5.244 11.689 11.69 0 6.445-5.244 11.689-11.69 11.689-6.445 0-11.689-5.244-11.689-11.69zm20.758 11.84l-.623 3.344-2.095-3.056a13.782 13.782 0 0 0 3.806-2.954l2.256 3.29-3.344-.623z" fill="#273F63"/><path d="M15.277 15.7l-2.346-2.313-1.416 1.417 3.762 3.73 7.175-7.167-1.417-1.417-5.758 5.75z" fill="#273F63"/><rect x="8" y="4.768" width="18" height="18" rx="9" stroke="#273F63" stroke-width="2"/></g><defs><clipPath id="a"><path fill="#fff" d="M0 0h34v34H0z"/></clipPath></defs></svg>