<svg width="220" height="55" viewBox="0 0 220 55" fill="none" xmlns="http://www.w3.org/2000/svg"><g clip-path="url(#a)"><path d="M24.246 55a.647.647 0 0 1-.438-.183.57.57 0 0 1 .033-.813c1.247-1.13 2.393-3.055 3.218-5.429.742-2.092 1.18-4.383 1.18-6.126 0-3.237-1.517-6.325-4.38-8.931a.57.57 0 0 1-.035-.814.591.591 0 0 1 .826-.033c1.516 1.378 2.696 2.905 3.505 4.532.842 1.694 1.263 3.47 1.263 5.263 0 1.876-.471 4.3-1.246 6.508-1.146 3.254-2.562 5.013-3.539 5.893a.606.606 0 0 1-.387.133zm.438-.183a.57.57 0 0 0-.034-.813c-1.247-1.13-2.393-3.055-3.218-5.429-.742-2.092-1.18-4.383-1.18-6.126 0-3.237 1.517-6.325 4.381-8.931a.57.57 0 0 0 .034-.814.591.591 0 0 0-.826-.033c-1.516 1.378-2.696 2.905-3.504 4.532-.843 1.694-1.264 3.47-1.264 5.263 0 1.876.472 4.3 1.247 6.508 1.145 3.254 2.56 5.013 3.538 5.893.118.1.253.15.404.15a.712.712 0 0 0 .422-.2zm.151-9.877V33.07a.593.593 0 0 0-.59-.581c-.32 0-.59.265-.59.58v11.87c0 .316.27.582.59.582.338 0 .59-.266.59-.581zm-.168-22.595c1.516-1.378 2.696-2.905 3.505-4.532.842-1.693 1.263-3.47 1.263-5.263 0-1.876-.472-4.3-1.247-6.507-1.145-3.254-2.56-5.014-3.538-5.894a.591.591 0 0 0-.826.033.57.57 0 0 0 .034.814c1.247 1.129 2.393 3.055 3.218 5.429.742 2.091 1.18 4.382 1.18 6.125 0 3.238-1.517 6.325-4.381 8.932a.57.57 0 0 0-.034.813c.118.117.27.183.438.183.135.033.27-.017.388-.133zm0-.033a.57.57 0 0 0-.034-.814c-2.864-2.623-4.38-5.71-4.38-8.931 0-1.743.437-4.034 1.179-6.126.842-2.374 1.988-4.3 3.218-5.428a.57.57 0 0 0 .034-.814.591.591 0 0 0-.826-.033c-.977.896-2.376 2.64-3.538 5.893-.775 2.208-1.247 4.649-1.247 6.508 0 1.81.421 3.57 1.264 5.263.808 1.627 1.988 3.137 3.504 4.532.118.1.253.15.405.15a.562.562 0 0 0 .42-.2zm.168-.382V10.06a.593.593 0 0 0-.59-.58c-.32 0-.59.265-.59.58v11.87c0 .316.27.581.59.581a.58.58 0 0 0 .59-.58zm23.202 19.59a.565.565 0 0 0 .438-.698c-.523-2.307-2.157-4.515-3.42-5.96-1.55-1.776-3.455-3.386-5.106-4.316a12.089 12.089 0 0 0-5.274-1.544c-1.836-.116-3.757.117-5.728.714a.583.583 0 0 0-.388.73.595.595 0 0 0 .741.382c3.74-1.145 7.212-.896 10.06.73 1.533.88 3.319 2.392 4.801 4.068 1.668 1.893 2.78 3.835 3.151 5.462a.591.591 0 0 0 .573.448c.067 0 .118 0 .152-.016zm.05 0a.583.583 0 0 0 .388-.73.595.595 0 0 0-.742-.383c-1.617.498-3.875.515-6.369.034-2.207-.416-4.448-1.18-5.981-2.059-2.83-1.61-4.802-4.45-5.661-8.218a.574.574 0 0 0-.708-.431.565.565 0 0 0-.438.697c.455 1.976 1.213 3.752 2.224 5.246 1.061 1.56 2.41 2.822 3.993 3.719 1.635.93 4.01 1.76 6.352 2.191 1.045.2 2.342.365 3.673.365 1.096 0 2.225-.116 3.27-.431zm-8.003-5.014a.573.573 0 0 0-.22-.797l-10.429-5.926a.59.59 0 0 0-.809.215.573.573 0 0 0 .22.797l10.43 5.927c.1.05.201.083.285.083.22 0 .422-.1.523-.299zm-20.59-11.239a.565.565 0 0 0 .438-.697c-.455-1.976-1.213-3.752-2.224-5.246-1.061-1.56-2.41-2.823-3.993-3.719-1.634-.93-4.01-1.76-6.352-2.191-1.904-.349-4.65-.631-6.942.066a.583.583 0 0 0-.388.73.595.595 0 0 0 .742.382c1.617-.498 3.875-.514 6.369-.033 2.207.415 4.448 1.179 5.981 2.059 2.83 1.61 4.802 4.449 5.662 8.217a.59.59 0 0 0 .572.449c.034 0 .085 0 .135-.017zm.017.017a.583.583 0 0 0 .387-.73.595.595 0 0 0-.74-.383c-3.741 1.146-7.212.897-10.06-.73-1.533-.88-3.32-2.39-4.802-4.067-1.634-1.893-2.763-3.835-3.134-5.462a.574.574 0 0 0-.707-.432.565.565 0 0 0-.439.697c.523 2.308 2.157 4.516 3.42 5.96 1.551 1.777 3.455 3.387 5.106 4.316a12.089 12.089 0 0 0 5.274 1.544c.303.017.606.034.927.034 1.533 0 3.134-.25 4.768-.747zm.354-.283a.573.573 0 0 0-.22-.797L9.217 18.279a.59.59 0 0 0-.809.216.573.573 0 0 0 .22.797l10.43 5.926c.1.05.201.083.286.083a.64.64 0 0 0 .522-.299zM1.162 41.088c.37-1.627 1.5-3.57 3.151-5.462 1.466-1.676 3.269-3.204 4.802-4.067 2.83-1.61 6.319-1.86 10.059-.73a.604.604 0 0 0 .741-.382c.102-.3-.084-.631-.387-.73-1.971-.598-3.892-.848-5.729-.715-1.904.133-3.673.648-5.274 1.544-1.634.93-3.555 2.557-5.105 4.316C2.156 36.307.539 38.515 0 40.822a.59.59 0 0 0 .438.698c.05.016.084.016.134.016a.596.596 0 0 0 .59-.448zm6.2.498c2.326-.432 4.702-1.262 6.353-2.191 1.584-.897 2.932-2.159 3.993-3.719 1.028-1.494 1.77-3.27 2.224-5.246a.59.59 0 0 0-.438-.697c-.32-.067-.64.133-.707.431-.86 3.752-2.831 6.608-5.662 8.218-1.533.88-3.774 1.644-5.981 2.059-2.494.464-4.769.464-6.37-.034a.603.603 0 0 0-.74.382c-.102.299.084.631.387.73 1.045.316 2.173.432 3.285.432 1.315 0 2.612-.166 3.657-.365zm1.854-4.864l10.43-5.927a.587.587 0 0 0 .219-.797.606.606 0 0 0-.809-.215l-10.43 5.926a.587.587 0 0 0 .287 1.096.694.694 0 0 0 .303-.083zm20.506-11.887c.859-3.752 2.83-6.607 5.66-8.217 1.534-.88 3.775-1.644 5.982-2.059 2.494-.465 4.769-.465 6.37.033a.6.6 0 0 0 .74-.381c.102-.3-.083-.631-.387-.73-2.291-.698-5.055-.432-6.942-.067-2.325.431-4.7 1.261-6.352 2.191-1.584.896-2.931 2.158-3.993 3.719-1.028 1.494-1.77 3.27-2.224 5.246a.59.59 0 0 0 .438.697.591.591 0 0 0 .708-.432zm4.987 1.162c1.904-.132 3.673-.647 5.274-1.544 1.634-.93 3.555-2.556 5.105-4.316 1.264-1.444 2.881-3.652 3.42-5.96a.59.59 0 0 0-.438-.697c-.32-.066-.64.133-.707.432-.371 1.627-1.5 3.569-3.151 5.462-1.466 1.676-3.269 3.204-4.802 4.067-2.83 1.61-6.319 1.86-10.06.73a.602.602 0 0 0-.74.382c-.101.299.084.631.387.73 1.634.499 3.252.748 4.802.748.287 0 .607-.017.91-.034zm-5.257-.78l10.43-5.926a.587.587 0 0 0 .219-.797.606.606 0 0 0-.81-.216l-10.429 5.927a.587.587 0 0 0 .287 1.095.695.695 0 0 0 .303-.083zM15.181 12.02c.488-.282.825-.73.977-1.261a2.067 2.067 0 0 0-.202-1.578 2.129 2.129 0 0 0-1.82-1.029c-.37 0-.724.1-1.045.282-.994.565-1.348 1.843-.775 2.822a2.13 2.13 0 0 0 1.82 1.03c.37.016.725-.083 1.045-.266zm-.253-2.241a.878.878 0 0 1 .084.68.93.93 0 0 1-.421.549.885.885 0 0 1-.455.116c-.32 0-.64-.166-.792-.448a.91.91 0 0 1 .337-1.246.885.885 0 0 1 .455-.116.98.98 0 0 1 .792.465zm2.376 5.877a.587.587 0 0 0 .219-.797l-2.123-3.62a.606.606 0 0 0-.809-.215.587.587 0 0 0-.219.797l2.14 3.62a.59.59 0 0 0 .505.298.574.574 0 0 0 .287-.083zM35.417 46.55c.994-.565 1.348-1.843.775-2.822a2.129 2.129 0 0 0-1.82-1.03 2.105 2.105 0 0 0-2.022 1.544 2.066 2.066 0 0 0 .202 1.577 2.13 2.13 0 0 0 1.82 1.03 2.3 2.3 0 0 0 1.045-.3zm-.253-2.241a.91.91 0 0 1-.337 1.245.885.885 0 0 1-.455.116c-.32 0-.64-.166-.792-.448a.878.878 0 0 1-.084-.68.93.93 0 0 1 .421-.549.884.884 0 0 1 .455-.116c.32-.017.623.15.792.432zm-1.264-.332a.587.587 0 0 0 .22-.797l-2.124-3.636a.606.606 0 0 0-.808-.216.587.587 0 0 0-.22.797l2.123 3.636a.59.59 0 0 0 .506.299.594.594 0 0 0 .303-.083zM6.116 27.492c0-1.146-.944-2.076-2.106-2.076-1.163 0-2.106.93-2.106 2.076 0 1.145.943 2.075 2.106 2.075 1.162 0 2.106-.93 2.106-2.075zm-1.18 0a.917.917 0 0 1-.926.913.907.907 0 0 1-.927-.913c0-.515.404-.914.927-.914.522 0 .926.416.926.914zm5.426 0a.593.593 0 0 0-.59-.582H5.526c-.32 0-.59.266-.59.582 0 .315.27.58.59.58h4.246c.337 0 .59-.248.59-.58zm36.226 0c0-1.146-.944-2.076-2.107-2.076-1.162 0-2.106.93-2.106 2.076 0 1.145.944 2.075 2.106 2.075 1.163 0 2.107-.93 2.107-2.075zm-1.18 0a.917.917 0 0 1-.927.913.917.917 0 0 1-.926-.913c0-.515.404-.914.926-.914.506.017.927.416.927.914zm-1.836 0a.593.593 0 0 0-.59-.582h-4.246c-.32 0-.59.266-.59.582 0 .315.27.58.59.58h4.246c.32 0 .59-.248.59-.58zm-27.616 18.31c.286-.48.354-1.029.202-1.576a2.105 2.105 0 0 0-2.022-1.544 2.13 2.13 0 0 0-1.82 1.029 2.05 2.05 0 0 0 .775 2.822c.32.183.674.282 1.045.282a2.098 2.098 0 0 0 1.82-1.012zm-1.365-1.825c.22.116.37.315.421.548a.869.869 0 0 1-.084.68.922.922 0 0 1-.792.448c-.151 0-.32-.05-.455-.116a.91.91 0 0 1-.337-1.245.922.922 0 0 1 .792-.448c.152.016.32.05.455.133zm.809-.216l2.123-3.636a.573.573 0 0 0-.22-.797.59.59 0 0 0-.808.216l-2.123 3.636a.573.573 0 0 0 .219.797c.101.05.202.083.287.083.219 0 .404-.1.522-.3zm20.792-32.489a2.05 2.05 0 0 0-.775-2.822 2.095 2.095 0 0 0-1.045-.282 2.13 2.13 0 0 0-1.82 1.029 1.985 1.985 0 0 0-.202 1.577 2.105 2.105 0 0 0 2.022 1.544 2.204 2.204 0 0 0 1.82-1.046zm-1.365-1.826a.91.91 0 0 1 .337 1.245.922.922 0 0 1-.792.448c-.152 0-.32-.05-.455-.116a.817.817 0 0 1-.421-.548.869.869 0 0 1 .084-.68.922.922 0 0 1 .792-.449.735.735 0 0 1 .455.1zm-2.83 5.993l2.122-3.636a.573.573 0 0 0-.219-.796.59.59 0 0 0-.809.215l-2.123 3.636a.573.573 0 0 0 .22.797c.1.05.202.083.286.083a.616.616 0 0 0 .522-.299z" fill="url(#b)"/><path d="M96.866 35.427l-.708 1.046h-1.803l6.167-8.981-5.965-8.733h1.82l5.055 7.488 5.055-7.488h1.802L96.866 35.427z" fill="url(#c)"/><path d="M125.695 18.776h-1.534v11.97c0 1.477-.438 2.622-1.297 3.453-.859.83-2.022 1.245-3.505 1.245-1.482 0-2.662-.415-3.521-1.229-.859-.813-1.298-1.976-1.298-3.47v-11.97h-1.499v12.203c.034 1.81.623 3.22 1.769 4.233 1.146 1.013 2.662 1.528 4.549 1.528 1.247 0 2.342-.233 3.303-.714.96-.482 1.702-1.163 2.224-2.042.539-.897.809-1.926.809-3.121V18.776z" fill="url(#d)"/><path d="M108.475 36.473l-5.19-7.587-.893 1.278 4.263 6.309h1.82z" fill="url(#e)"/><path d="M73.294 35.211h-7.212v1.262h7.212V35.21z" fill="url(#f)"/><path d="M89.823 18.776h-1.534v11.97c0 1.477-.438 2.622-1.297 3.453-.86.83-2.022 1.245-3.505 1.245-1.482 0-2.662-.415-3.521-1.229-.86-.813-1.297-1.976-1.297-3.47v-11.97h-1.5v12.203c.034 1.81.623 3.22 1.77 4.233 1.145 1.013 2.661 1.528 4.548 1.528 1.247 0 2.342-.233 3.303-.714.96-.482 1.702-1.163 2.224-2.042.54-.897.809-1.926.809-3.121V18.776z" fill="url(#g)"/><path d="M62.898 36.473h1.533V18.776h-1.533v17.697z" fill="url(#h)"/><path d="M201.701 27.907c1.045-.913 1.567-2.192 1.567-3.852 0-1.643-.539-2.938-1.6-3.868-1.096-.946-2.561-1.411-4.432-1.411h-6.116v17.713h1.517V20.055h4.7c1.416.017 2.494.382 3.269 1.113.758.713 1.146 1.693 1.146 2.921 0 1.229-.388 2.192-1.163 2.889-.775.68-1.904 1.03-3.37 1.03h-3.066v1.26h3.033c1.971 0 3.471-.464 4.515-1.36z" fill="url(#i)"/><path d="M144.498 36.307L140 28.77c1.129-.332 2.038-.93 2.712-1.776a4.8 4.8 0 0 0 1.011-3.005c0-1.644-.539-2.922-1.617-3.835-1.079-.913-2.578-1.378-4.499-1.378h-5.83v17.697h1.533V20.038h4.28c1.449 0 2.578.332 3.387 1.029.809.68 1.213 1.66 1.213 2.905 0 1.129-.388 2.059-1.163 2.772-.775.714-1.786 1.08-3.066 1.08h-3.117v1.261h3.69l4.347 7.388h1.617v-.166z" fill="url(#j)"/><path d="M208.391 31.492h6.503l-.455-1.245h-5.56l3.606-9.645 5.897 15.738.051.133h1.583l-6.807-17.697h-1.449l-6.807 17.697h1.584l1.854-4.98z" fill="url(#k)"/><path d="M185.931 32.09c0-.88-.203-1.643-.624-2.29-.421-.648-1.045-1.213-1.938-1.678-.842-.464-2.055-.913-3.673-1.344-1.617-.448-2.797-.947-3.521-1.511-.725-.564-1.095-1.311-1.095-2.208 0-.98.421-1.776 1.23-2.374.825-.614 1.904-.913 3.285-.913 1.416 0 2.544.365 3.387 1.096.842.73 1.264 1.71 1.264 2.922h1.533c0-.997-.253-1.893-.775-2.706-.523-.814-1.247-1.445-2.191-1.893-.943-.448-2.005-.68-3.201-.68-1.752 0-3.201.43-4.33 1.278-1.129.846-1.702 1.942-1.702 3.303 0 1.395.607 2.524 1.82 3.387.859.598 2.224 1.162 4.077 1.677 1.871.514 3.134 1.062 3.842 1.627.691.564 1.045 1.344 1.045 2.324 0 1.012-.422 1.81-1.264 2.424-.843.614-1.972.913-3.37.913-1.567 0-2.831-.366-3.774-1.08-.944-.713-1.416-1.71-1.416-2.954h-1.516a4.83 4.83 0 0 0 .826 2.755c.556.814 1.348 1.428 2.409 1.876 1.062.449 2.224.664 3.488.664 1.853 0 3.353-.415 4.482-1.261 1.129-.847 1.702-1.96 1.702-3.354z" fill="url(#l)"/><path d="M161.685 18.776h-1.753l-4.583 8.068.809 1.345 5.527-9.413z" fill="url(#m)"/><path d="M155.181 36.473v-7.238l-6.201-10.46h-1.803l6.487 11.04v6.658h1.517z" fill="url(#n)"/></g><defs><linearGradient id="b" y1="27.499" x2="219.991" y2="27.499" gradientUnits="userSpaceOnUse"><stop stop-color="#D6913D"/><stop offset=".517" stop-color="#F3B562"/><stop offset="1" stop-color="#FFE7CB"/></linearGradient><linearGradient id="c" y1="27.499" x2="219.991" y2="27.499" gradientUnits="userSpaceOnUse"><stop stop-color="#D6913D"/><stop offset=".517" stop-color="#F3B562"/><stop offset="1" stop-color="#FFE7CB"/></linearGradient><linearGradient id="d" y1="27.499" x2="219.991" y2="27.499" gradientUnits="userSpaceOnUse"><stop stop-color="#D6913D"/><stop offset=".517" stop-color="#F3B562"/><stop offset="1" stop-color="#FFE7CB"/></linearGradient><linearGradient id="e" y1="27.499" x2="219.991" y2="27.499" gradientUnits="userSpaceOnUse"><stop stop-color="#D6913D"/><stop offset=".517" stop-color="#F3B562"/><stop offset="1" stop-color="#FFE7CB"/></linearGradient><linearGradient id="f" y1="27.499" x2="219.991" y2="27.499" gradientUnits="userSpaceOnUse"><stop stop-color="#D6913D"/><stop offset=".517" stop-color="#F3B562"/><stop offset="1" stop-color="#FFE7CB"/></linearGradient><linearGradient id="g" y1="27.499" x2="219.991" y2="27.499" gradientUnits="userSpaceOnUse"><stop stop-color="#D6913D"/><stop offset=".517" stop-color="#F3B562"/><stop offset="1" stop-color="#FFE7CB"/></linearGradient><linearGradient id="h" y1="27.499" x2="219.991" y2="27.499" gradientUnits="userSpaceOnUse"><stop stop-color="#D6913D"/><stop offset=".517" stop-color="#F3B562"/><stop offset="1" stop-color="#FFE7CB"/></linearGradient><linearGradient id="i" y1="27.499" x2="219.991" y2="27.499" gradientUnits="userSpaceOnUse"><stop stop-color="#D6913D"/><stop offset=".517" stop-color="#F3B562"/><stop offset="1" stop-color="#FFE7CB"/></linearGradient><linearGradient id="j" y1="27.499" x2="219.991" y2="27.499" gradientUnits="userSpaceOnUse"><stop stop-color="#D6913D"/><stop offset=".517" stop-color="#F3B562"/><stop offset="1" stop-color="#FFE7CB"/></linearGradient><linearGradient id="k" y1="27.499" x2="219.991" y2="27.499" gradientUnits="userSpaceOnUse"><stop stop-color="#D6913D"/><stop offset=".517" stop-color="#F3B562"/><stop offset="1" stop-color="#FFE7CB"/></linearGradient><linearGradient id="l" y1="27.499" x2="219.991" y2="27.499" gradientUnits="userSpaceOnUse"><stop stop-color="#D6913D"/><stop offset=".517" stop-color="#F3B562"/><stop offset="1" stop-color="#FFE7CB"/></linearGradient><linearGradient id="m" y1="27.499" x2="219.991" y2="27.499" gradientUnits="userSpaceOnUse"><stop stop-color="#D6913D"/><stop offset=".517" stop-color="#F3B562"/><stop offset="1" stop-color="#FFE7CB"/></linearGradient><linearGradient id="n" y1="27.499" x2="219.991" y2="27.499" gradientUnits="userSpaceOnUse"><stop stop-color="#D6913D"/><stop offset=".517" stop-color="#F3B562"/><stop offset="1" stop-color="#FFE7CB"/></linearGradient><clipPath id="a"><path fill="#fff" d="M0 0h220v55H0z"/></clipPath></defs></svg>